<svg width="156" height="25" viewBox="0 0 156 25" fill="none" xmlns="http://www.w3.org/2000/svg">
<path d="M29.2174 12.5514C28.0674 7.35295 26.3619 4.0369 23.6283 3.22882C23.0989 3.07438 22.5499 2.99733 21.9984 3.00008C20.3179 3.00008 18.9917 4.00002 15.9988 4.00002C13.0058 4.00002 11.6772 3.00008 9.99914 3.00008C9.42464 2.99711 8.85253 3.07409 8.29925 3.22882C5.56191 4.0369 3.87076 7.35607 2.70771 12.5514C1.52028 17.8579 1.73527 22.0508 4.05638 22.8558C5.68128 23.4182 7.13432 22.2552 8.51048 20.5434C10.0729 18.5935 11.9971 17.9936 15.9988 17.9936C20.0004 17.9936 21.8497 18.5935 23.4146 20.5434C24.7895 22.2564 26.2963 23.4051 27.8781 22.8658C30.4417 21.9902 30.4054 17.9204 29.2174 12.5514Z" stroke="white" stroke-width="2" stroke-miterlimit="10"/>
<path d="M18.2487 12.2494C18.939 12.2494 19.4986 11.6898 19.4986 10.9994C19.4986 10.3091 18.939 9.74951 18.2487 9.74951C17.5584 9.74951 16.9988 10.3091 16.9988 10.9994C16.9988 11.6898 17.5584 12.2494 18.2487 12.2494Z" fill="white"/>
<path d="M20.9985 14.9992C20.7511 14.9992 20.5093 14.9259 20.3037 14.7884C20.0981 14.6509 19.9379 14.4555 19.8434 14.2269C19.7489 13.9983 19.7243 13.7469 19.7728 13.5043C19.8213 13.2618 19.9406 13.0391 20.1157 12.8644C20.2909 12.6897 20.5139 12.5709 20.7565 12.523C20.9992 12.4752 21.2506 12.5004 21.479 12.5954C21.7073 12.6905 21.9023 12.8512 22.0393 13.0572C22.1762 13.2631 22.249 13.5051 22.2484 13.7524C22.2476 14.0834 22.1155 14.4005 21.8812 14.6343C21.6469 14.868 21.3294 14.9992 20.9985 14.9992Z" fill="white"/>
<path d="M20.9985 9.49961C21.6888 9.49961 22.2484 8.94 22.2484 8.24968C22.2484 7.55937 21.6888 6.99976 20.9985 6.99976C20.3081 6.99976 19.7485 7.55937 19.7485 8.24968C19.7485 8.94 20.3081 9.49961 20.9985 9.49961Z" fill="white"/>
<path d="M23.7483 12.2494C24.4387 12.2494 24.9983 11.6898 24.9983 10.9994C24.9983 10.3091 24.4387 9.74951 23.7483 9.74951C23.058 9.74951 22.4984 10.3091 22.4984 10.9994C22.4984 11.6898 23.058 12.2494 23.7483 12.2494Z" fill="white"/>
<path d="M9.99915 7.99976V13.9994ZM12.999 10.9996H6.99933Z" fill="white"/>
<path d="M9.99915 7.99976V13.9994M12.999 10.9996H6.99933" stroke="white" stroke-width="1.375" stroke-linecap="round" stroke-linejoin="round"/>
<path d="M38.6768 17.144C38.0128 17.144 37.4008 17.04 36.8408 16.832C36.2888 16.616 35.8048 16.312 35.3888 15.92C34.9808 15.528 34.6608 15.068 34.4288 14.54C34.2048 14.012 34.0928 13.432 34.0928 12.8C34.0928 12.168 34.2048 11.588 34.4288 11.06C34.6608 10.532 34.9848 10.072 35.4008 9.68C35.8168 9.288 36.3048 8.988 36.8648 8.78C37.4248 8.564 38.0408 8.456 38.7128 8.456C39.4568 8.456 40.1248 8.58 40.7168 8.828C41.3168 9.076 41.8208 9.436 42.2288 9.908L40.9808 11.06C40.6768 10.74 40.3448 10.504 39.9848 10.352C39.6248 10.192 39.2328 10.112 38.8088 10.112C38.4008 10.112 38.0288 10.176 37.6928 10.304C37.3568 10.432 37.0648 10.616 36.8168 10.856C36.5768 11.096 36.3888 11.38 36.2528 11.708C36.1248 12.036 36.0608 12.4 36.0608 12.8C36.0608 13.192 36.1248 13.552 36.2528 13.88C36.3888 14.208 36.5768 14.496 36.8168 14.744C37.0648 14.984 37.3528 15.168 37.6808 15.296C38.0168 15.424 38.3848 15.488 38.7848 15.488C39.1688 15.488 39.5408 15.428 39.9008 15.308C40.2688 15.18 40.6248 14.968 40.9688 14.672L42.0728 16.076C41.6168 16.42 41.0848 16.684 40.4768 16.868C39.8768 17.052 39.2768 17.144 38.6768 17.144ZM40.2968 15.824V12.668H42.0728V16.076L40.2968 15.824ZM42.7746 17L46.5186 8.6H48.4386L52.1946 17H50.1546L47.0826 9.584H47.8506L44.7666 17H42.7746ZM44.6466 15.2L45.1626 13.724H49.4826L50.0106 15.2H44.6466ZM53.0661 17V8.6H54.6741L58.2501 14.528H57.3981L60.9141 8.6H62.5101L62.5341 17H60.7101L60.6981 11.396H61.0341L58.2261 16.112H57.3501L54.4821 11.396H54.8901V17H53.0661ZM66.315 11.984H70.359V13.496H66.315V11.984ZM66.459 15.44H71.031V17H64.527V8.6H70.875V10.16H66.459V15.44ZM72.5778 17V8.6H76.2138C76.9658 8.6 77.6138 8.724 78.1578 8.972C78.7018 9.212 79.1218 9.56 79.4178 10.016C79.7138 10.472 79.8618 11.016 79.8618 11.648C79.8618 12.272 79.7138 12.812 79.4178 13.268C79.1218 13.716 78.7018 14.06 78.1578 14.3C77.6138 14.54 76.9658 14.66 76.2138 14.66H73.6578L74.5218 13.808V17H72.5778ZM77.9178 17L75.8178 13.952H77.8938L80.0178 17H77.9178ZM74.5218 14.024L73.6578 13.112H76.1058C76.7058 13.112 77.1538 12.984 77.4498 12.728C77.7458 12.464 77.8938 12.104 77.8938 11.648C77.8938 11.184 77.7458 10.824 77.4498 10.568C77.1538 10.312 76.7058 10.184 76.1058 10.184H73.6578L74.5218 9.26V14.024ZM83.19 11.984H87.234V13.496H83.19V11.984ZM83.334 15.44H87.906V17H81.402V8.6H87.75V10.16H83.334V15.44ZM89.4528 17V8.6H93.0888C93.8408 8.6 94.4888 8.724 95.0328 8.972C95.5768 9.212 95.9968 9.56 96.2928 10.016C96.5888 10.472 96.7368 11.016 96.7368 11.648C96.7368 12.272 96.5888 12.812 96.2928 13.268C95.9968 13.724 95.5768 14.076 95.0328 14.324C94.4888 14.564 93.8408 14.684 93.0888 14.684H90.5328L91.3968 13.808V17H89.4528ZM91.3968 14.024L90.5328 13.1H92.9808C93.5808 13.1 94.0288 12.972 94.3248 12.716C94.6208 12.46 94.7688 12.104 94.7688 11.648C94.7688 11.184 94.6208 10.824 94.3248 10.568C94.0288 10.312 93.5808 10.184 92.9808 10.184H90.5328L91.3968 9.26V14.024ZM102.322 17.144C101.658 17.144 101.042 17.036 100.474 16.82C99.9138 16.604 99.4258 16.3 99.0098 15.908C98.6018 15.516 98.2818 15.056 98.0498 14.528C97.8258 14 97.7138 13.424 97.7138 12.8C97.7138 12.176 97.8258 11.6 98.0498 11.072C98.2818 10.544 98.6058 10.084 99.0218 9.692C99.4378 9.3 99.9258 8.996 100.486 8.78C101.046 8.564 101.654 8.456 102.31 8.456C102.974 8.456 103.582 8.564 104.134 8.78C104.694 8.996 105.178 9.3 105.586 9.692C106.002 10.084 106.326 10.544 106.558 11.072C106.79 11.592 106.906 12.168 106.906 12.8C106.906 13.424 106.79 14.004 106.558 14.54C106.326 15.068 106.002 15.528 105.586 15.92C105.178 16.304 104.694 16.604 104.134 16.82C103.582 17.036 102.978 17.144 102.322 17.144ZM102.31 15.488C102.686 15.488 103.03 15.424 103.342 15.296C103.662 15.168 103.942 14.984 104.182 14.744C104.422 14.504 104.606 14.22 104.734 13.892C104.87 13.564 104.938 13.2 104.938 12.8C104.938 12.4 104.87 12.036 104.734 11.708C104.606 11.38 104.422 11.096 104.182 10.856C103.95 10.616 103.674 10.432 103.354 10.304C103.034 10.176 102.686 10.112 102.31 10.112C101.934 10.112 101.586 10.176 101.266 10.304C100.954 10.432 100.678 10.616 100.438 10.856C100.198 11.096 100.01 11.38 99.8738 11.708C99.7458 12.036 99.6818 12.4 99.6818 12.8C99.6818 13.192 99.7458 13.556 99.8738 13.892C100.01 14.22 100.194 14.504 100.426 14.744C100.666 14.984 100.946 15.168 101.266 15.296C101.586 15.424 101.934 15.488 102.31 15.488ZM111.127 17.144C110.455 17.144 109.811 17.056 109.195 16.88C108.579 16.696 108.083 16.46 107.707 16.172L108.367 14.708C108.727 14.964 109.151 15.176 109.639 15.344C110.135 15.504 110.635 15.584 111.139 15.584C111.523 15.584 111.831 15.548 112.063 15.476C112.303 15.396 112.479 15.288 112.591 15.152C112.703 15.016 112.759 14.86 112.759 14.684C112.759 14.46 112.671 14.284 112.495 14.156C112.319 14.02 112.087 13.912 111.799 13.832C111.511 13.744 111.191 13.664 110.839 13.592C110.495 13.512 110.147 13.416 109.795 13.304C109.451 13.192 109.135 13.048 108.847 12.872C108.559 12.696 108.323 12.464 108.139 12.176C107.963 11.888 107.875 11.52 107.875 11.072C107.875 10.592 108.003 10.156 108.259 9.764C108.523 9.364 108.915 9.048 109.435 8.816C109.963 8.576 110.623 8.456 111.415 8.456C111.943 8.456 112.463 8.52 112.975 8.648C113.487 8.768 113.939 8.952 114.331 9.2L113.731 10.676C113.339 10.452 112.947 10.288 112.555 10.184C112.163 10.072 111.779 10.016 111.403 10.016C111.027 10.016 110.719 10.06 110.479 10.148C110.239 10.236 110.067 10.352 109.963 10.496C109.859 10.632 109.807 10.792 109.807 10.976C109.807 11.192 109.895 11.368 110.071 11.504C110.247 11.632 110.479 11.736 110.767 11.816C111.055 11.896 111.371 11.976 111.715 12.056C112.067 12.136 112.415 12.228 112.759 12.332C113.111 12.436 113.431 12.576 113.719 12.752C114.007 12.928 114.239 13.16 114.415 13.448C114.599 13.736 114.691 14.1 114.691 14.54C114.691 15.012 114.559 15.444 114.295 15.836C114.031 16.228 113.635 16.544 113.107 16.784C112.587 17.024 111.927 17.144 111.127 17.144ZM116.019 17V8.6H117.963V17H116.019ZM121.697 17V10.184H119.009V8.6H126.329V10.184H123.641V17H121.697ZM131.337 17.144C130.673 17.144 130.057 17.036 129.489 16.82C128.929 16.604 128.441 16.3 128.025 15.908C127.617 15.516 127.297 15.056 127.065 14.528C126.841 14 126.729 13.424 126.729 12.8C126.729 12.176 126.841 11.6 127.065 11.072C127.297 10.544 127.621 10.084 128.037 9.692C128.453 9.3 128.941 8.996 129.501 8.78C130.061 8.564 130.669 8.456 131.325 8.456C131.989 8.456 132.597 8.564 133.149 8.78C133.709 8.996 134.193 9.3 134.601 9.692C135.017 10.084 135.341 10.544 135.573 11.072C135.805 11.592 135.921 12.168 135.921 12.8C135.921 13.424 135.805 14.004 135.573 14.54C135.341 15.068 135.017 15.528 134.601 15.92C134.193 16.304 133.709 16.604 133.149 16.82C132.597 17.036 131.993 17.144 131.337 17.144ZM131.325 15.488C131.701 15.488 132.045 15.424 132.357 15.296C132.677 15.168 132.957 14.984 133.197 14.744C133.437 14.504 133.621 14.22 133.749 13.892C133.885 13.564 133.953 13.2 133.953 12.8C133.953 12.4 133.885 12.036 133.749 11.708C133.621 11.38 133.437 11.096 133.197 10.856C132.965 10.616 132.689 10.432 132.369 10.304C132.049 10.176 131.701 10.112 131.325 10.112C130.949 10.112 130.601 10.176 130.281 10.304C129.969 10.432 129.693 10.616 129.453 10.856C129.213 11.096 129.025 11.38 128.889 11.708C128.761 12.036 128.697 12.4 128.697 12.8C128.697 13.192 128.761 13.556 128.889 13.892C129.025 14.22 129.209 14.504 129.441 14.744C129.681 14.984 129.961 15.168 130.281 15.296C130.601 15.424 130.949 15.488 131.325 15.488ZM137.382 17V8.6H141.018C141.77 8.6 142.418 8.724 142.962 8.972C143.506 9.212 143.926 9.56 144.222 10.016C144.518 10.472 144.666 11.016 144.666 11.648C144.666 12.272 144.518 12.812 144.222 13.268C143.926 13.716 143.506 14.06 142.962 14.3C142.418 14.54 141.77 14.66 141.018 14.66H138.462L139.326 13.808V17H137.382ZM142.722 17L140.622 13.952H142.698L144.822 17H142.722ZM139.326 14.024L138.462 13.112H140.91C141.51 13.112 141.958 12.984 142.254 12.728C142.55 12.464 142.698 12.104 142.698 11.648C142.698 11.184 142.55 10.824 142.254 10.568C141.958 10.312 141.51 10.184 140.91 10.184H138.462L139.326 9.26V14.024ZM148.178 17V13.568L148.622 14.744L144.926 8.6H146.99L149.822 13.316H148.634L151.478 8.6H153.386L149.69 14.744L150.122 13.568V17H148.178Z" fill="white"/>
</svg>
